<svg xmlns="http://www.w3.org/2000/svg" xml:space="preserve" height="3rem" fill="#ff5500" version="1.1" style="shape-rendering:geometricPrecision; text-rendering:geometricPrecision; image-rendering:optimizeQuality; fill-rule:evenodd; clip-rule:evenodd"
viewBox="0 0 2340.95 3559.6"
 xmlns:xlink="http://www.w3.org/1999/xlink"
 xmlns:xodm="http://www.corel.com/coreldraw/odm/2003">
 <g id="Camada_x0020_1">
  <metadata id="CorelCorpID_0Corel-Layer"/>
  <g id="_1890872004112">
   <path class="fil0 str0" d="M209.18 280.46l461.24 -228.38c126.16,-62.5 285.27,-60.53 417.84,-20.63l862.72 258.7c215.33,64.54 385.85,272.84 385.85,501.4l1.02 2047.63c0,93.69 -43.26,160.27 -108.34,223.39 -97.04,94.71 -120.8,24.27 -120.8,-73.61l2.92 -2100.65c5.58,-247.99 -146.9,-351.08 -358.22,-416.31l-756.5 -233.23c-94.86,-24.49 -191.28,-16.95 -292.7,56.23 -37.83,41.29 -26.89,73.36 39.32,95.08l804.53 234.28c205.75,60.02 346.89,171.06 345.54,402.1l-2.81 439.16c-1.49,239.68 -50.51,393.97 -310.96,448.64l160.89 96.72c129.33,77.8 157.25,193.98 156.77,336.18l-2.99 762.65c-0.47,134.69 -83.31,277.18 -191.14,355.42 -131.12,95.4 -223.75,112.17 -394.45,68.22l-1059.29 -303.96c-145.22,-41.84 -246.53,-121.83 -246.53,-284.83l0 -2349.7c0,-160.2 63.7,-243.94 206.08,-314.49zm648.23 2128.38l191.43 71.72c7.83,2.95 7.51,3.1 13.08,9.58 28.64,33.67 36.59,72.92 21.25,118.55 -19.93,41.47 -61.81,66.43 -107.65,50.4l-159.91 -55.97c-20.77,-7.25 -28.83,-15.52 -28.83,-38.85l0 -124.41c0,-41.18 41.54,-41.73 70.62,-31.01zm0 -1226.41l191.43 71.72c7.83,2.95 7.51,3.1 13.08,9.58 28.64,33.67 36.59,72.92 21.25,118.55 -19.93,41.47 -61.81,66.43 -107.65,50.4l-159.91 -55.97c-20.77,-7.25 -28.83,-15.52 -28.83,-38.85l0 -124.41c0,-41.18 41.54,-41.73 70.62,-31.01z"/>
   <path class="fil0 str0" d="M1719.03 619.77l-891.08 -266.9c-20.63,-6.16 -73.61,-21.35 -32.25,-46.94 41.43,-25.29 82.83,-30.65 124.3,-19.13l882.95 279 10.93 3.46c148.76,72.3 232.39,195.95 232.39,362.67l0 2180.79c0,44.71 -26.35,66 -62.35,83.05l-29.99 14.18 0 -953.25c0,-55.14 -33.56,-171.31 -71.75,-211.69 -47.59,-50.62 -100.83,-86.95 -158.19,-112.28 49.01,-25.07 94.31,-54.52 133.05,-91.76 56.7,-54.55 96.9,-190.66 96.9,-269.12l0 -598.52c0,-145 -88.55,-309.76 -234.9,-353.56z"/>
  </g>
 </g>
</svg>